{
    "asset" : {
        "generator" : "Khronos glTF Blender I/O v3.3.32",
        "version" : "2.0"
    },
    "extensionsUsed" : [
        "KHR_materials_specular",
        "KHR_materials_ior"
    ],
    "scene" : 0,
    "scenes" : [
        {
            "name" : "Scene",
            "nodes" : [
                0,
                1
            ]
        }
    ],
    "nodes" : [
        {
            "mesh" : 0,
            "name" : "Foliage001",
            "scale" : [
                0.02549644559621811,
                0.02549644559621811,
                0.02549644559621811
            ]
        },
        {
            "mesh" : 1,
            "name" : "Foliage002",
            "scale" : [
                0.02539999969303608,
                0.02539999969303608,
                0.02539999969303608
            ]
        }
    ],
    "materials" : [
        {
            "doubleSided" : true,
            "extensions" : {
                "KHR_materials_specular" : {
                    "specularColorFactor" : [
                        0,
                        0,
                        0
                    ]
                },
                "KHR_materials_ior" : {
                    "ior" : 1.4500000476837158
                }
            },
            "name" : "Material #46",
            "pbrMetallicRoughness" : {
                "roughnessFactor" : 0.858578622341156
            }
        },
        {
            "doubleSided" : true,
            "extensions" : {
                "KHR_materials_specular" : {
                    "specularColorFactor" : [
                        0.237135764977738,
                        0.237135764977738,
                        0.237135764977738
                    ]
                },
                "KHR_materials_ior" : {
                    "ior" : 1.4500000476837158
                }
            },
            "name" : "Branch0",
            "pbrMetallicRoughness" : {
                "baseColorFactor" : [
                    0.27450981736183167,
                    0.14901961386203766,
                    0.0117647061124444,
                    1
                ],
                "roughnessFactor" : 0.7621585726737976
            }
        },
        {
            "doubleSided" : true,
            "extensions" : {
                "KHR_materials_specular" : {
                    "specularColorFactor" : [
                        0.237135764977738,
                        0.237135764977738,
                        0.237135764977738
                    ]
                },
                "KHR_materials_ior" : {
                    "ior" : 1.4500000476837158
                }
            },
            "name" : "Branch1",
            "pbrMetallicRoughness" : {
                "baseColorFactor" : [
                    0.27450981736183167,
                    0.14901961386203766,
                    0.0117647061124444,
                    1
                ],
                "roughnessFactor" : 0.7621585726737976
            }
        }
    ],
    "meshes" : [
        {
            "name" : "Mesh",
            "primitives" : [
                {
                    "attributes" : {
                        "POSITION" : 0,
                        "NORMAL" : 1,
                        "TEXCOORD_0" : 2
                    },
                    "indices" : 3,
                    "material" : 0
                }
            ]
        },
        {
            "name" : "Mesh.001",
            "primitives" : [
                {
                    "attributes" : {
                        "POSITION" : 4,
                        "NORMAL" : 5,
                        "TEXCOORD_0" : 6
                    },
                    "indices" : 7,
                    "material" : 1
                },
                {
                    "attributes" : {
                        "POSITION" : 8,
                        "NORMAL" : 9,
                        "TEXCOORD_0" : 10
                    },
                    "indices" : 11,
                    "material" : 2
                }
            ]
        }
    ],
    "accessors" : [
        {
            "bufferView" : 0,
            "componentType" : 5126,
            "count" : 9548,
            "max" : [
                151.29702758789062,
                300.7125244140625,
                166.4674072265625
            ],
            "min" : [
                -130.46697998046875,
                16.595151901245117,
                -144.6341552734375
            ],
            "type" : "VEC3"
        },
        {
            "bufferView" : 1,
            "componentType" : 5126,
            "count" : 9548,
            "type" : "VEC3"
        },
        {
            "bufferView" : 2,
            "componentType" : 5126,
            "count" : 9548,
            "type" : "VEC2"
        },
        {
            "bufferView" : 3,
            "componentType" : 5123,
            "count" : 14322,
            "type" : "SCALAR"
        },
        {
            "bufferView" : 4,
            "componentType" : 5126,
            "count" : 621,
            "max" : [
                119.29781341552734,
                286.9090576171875,
                137.1765594482422
            ],
            "min" : [
                -102.46868133544922,
                73.09302520751953,
                -114.04627990722656
            ],
            "type" : "VEC3"
        },
        {
            "bufferView" : 5,
            "componentType" : 5126,
            "count" : 621,
            "type" : "VEC3"
        },
        {
            "bufferView" : 6,
            "componentType" : 5126,
            "count" : 621,
            "type" : "VEC2"
        },
        {
            "bufferView" : 7,
            "componentType" : 5123,
            "count" : 2391,
            "type" : "SCALAR"
        },
        {
            "bufferView" : 8,
            "componentType" : 5126,
            "count" : 10640,
            "max" : [
                143.4219207763672,
                290.75213623046875,
                157.50486755371094
            ],
            "min" : [
                -120.66281127929688,
                27.752098083496094,
                -133.53860473632812
            ],
            "type" : "VEC3"
        },
        {
            "bufferView" : 9,
            "componentType" : 5126,
            "count" : 10640,
            "type" : "VEC3"
        },
        {
            "bufferView" : 10,
            "componentType" : 5126,
            "count" : 10640,
            "type" : "VEC2"
        },
        {
            "bufferView" : 11,
            "componentType" : 5123,
            "count" : 41040,
            "type" : "SCALAR"
        }
    ],
    "bufferViews" : [
        {
            "buffer" : 0,
            "byteLength" : 114576,
            "byteOffset" : 0,
            "target" : 34962
        },
        {
            "buffer" : 0,
            "byteLength" : 114576,
            "byteOffset" : 114576,
            "target" : 34962
        },
        {
            "buffer" : 0,
            "byteLength" : 76384,
            "byteOffset" : 229152,
            "target" : 34962
        },
        {
            "buffer" : 0,
            "byteLength" : 28644,
            "byteOffset" : 305536,
            "target" : 34963
        },
        {
            "buffer" : 0,
            "byteLength" : 7452,
            "byteOffset" : 334180,
            "target" : 34962
        },
        {
            "buffer" : 0,
            "byteLength" : 7452,
            "byteOffset" : 341632,
            "target" : 34962
        },
        {
            "buffer" : 0,
            "byteLength" : 4968,
            "byteOffset" : 349084,
            "target" : 34962
        },
        {
            "buffer" : 0,
            "byteLength" : 4782,
            "byteOffset" : 354052,
            "target" : 34963
        },
        {
            "buffer" : 0,
            "byteLength" : 127680,
            "byteOffset" : 358836,
            "target" : 34962
        },
        {
            "buffer" : 0,
            "byteLength" : 127680,
            "byteOffset" : 486516,
            "target" : 34962
        },
        {
            "buffer" : 0,
            "byteLength" : 85120,
            "byteOffset" : 614196,
            "target" : 34962
        },
        {
            "buffer" : 0,
            "byteLength" : 82080,
            "byteOffset" : 699316,
            "target" : 34963
        }
    ],
    "buffers" : [
        {
            "byteLength" : 781396,
            "uri" : "data:application/octet-stream;base64,"
        }
    ]
}
