{
    "asset" : {
        "generator" : "Khronos glTF Blender I/O v3.3.32",
        "version" : "2.0"
    },
    "scene" : 0,
    "scenes" : [
        {
            "name" : "Scene",
            "nodes" : [
                3
            ]
        }
    ],
    "nodes" : [
        {
            "mesh" : 0,
            "name" : "Lantern Low Poly_0"
        },
        {
            "children" : [
                0
            ],
            "name" : "Lantern Low Poly",
            "scale" : [
                0.15000000596046448,
                0.15000000596046448,
                0.15000000596046448
            ]
        },
        {
            "children" : [
                1
            ],
            "name" : "Root"
        },
        {
            "children" : [
                2
            ],
            "name" : "Sketchfab_model",
            "rotation" : [
                -0.5,
                0.5,
                0.5,
                0.5
            ],
            "translation" : [
                -0.2678007185459137,
                0,
                0.26780062913894653
            ]
        }
    ],
    "materials" : [
        {
            "doubleSided" : true,
            "emissiveFactor" : [
                1,
                1,
                1
            ],
            "emissiveTexture" : {
                "index" : 0
            },
            "name" : "Material.001",
            "normalTexture" : {
                "index" : 1
            },
            "pbrMetallicRoughness" : {
                "baseColorTexture" : {
                    "index" : 2
                },
                "metallicRoughnessTexture" : {
                    "index" : 3
                }
            }
        }
    ],
    "meshes" : [
        {
            "name" : "Lantern Low Poly_0",
            "primitives" : [
                {
                    "attributes" : {
                        "POSITION" : 0,
                        "NORMAL" : 1,
                        "TEXCOORD_0" : 2
                    },
                    "indices" : 3,
                    "material" : 0
                }
            ]
        }
    ],
    "textures" : [
        {
            "sampler" : 0,
            "source" : 0
        },
        {
            "sampler" : 0,
            "source" : 1
        },
        {
            "sampler" : 0,
            "source" : 2
        },
        {
            "sampler" : 0,
            "source" : 3
        }
    ],
    "images" : [
        {
            "bufferView" : 4,
            "mimeType" : "image/png",
            "name" : "Material.001_emissive"
        },
        {
            "bufferView" : 5,
            "mimeType" : "image/png",
            "name" : "Material.001_normal"
        },
        {
            "bufferView" : 6,
            "mimeType" : "image/png",
            "name" : "Material.001_baseColor"
        },
        {
            "bufferView" : 7,
            "mimeType" : "image/png",
            "name" : "Material.001_metallicRoughness"
        }
    ],
    "accessors" : [
        {
            "bufferView" : 0,
            "componentType" : 5126,
            "count" : 840,
            "max" : [
                0.9951800107955933,
                1.7665300369262695,
                14.891119956970215
            ],
            "min" : [
                -0.9951800107955933,
                -5.337200164794922,
                0
            ],
            "type" : "VEC3"
        },
        {
            "bufferView" : 1,
            "componentType" : 5126,
            "count" : 840,
            "type" : "VEC3"
        },
        {
            "bufferView" : 2,
            "componentType" : 5126,
            "count" : 840,
            "type" : "VEC2"
        },
        {
            "bufferView" : 3,
            "componentType" : 5123,
            "count" : 996,
            "type" : "SCALAR"
        }
    ],
    "bufferViews" : [
        {
            "buffer" : 0,
            "byteLength" : 10080,
            "byteOffset" : 0,
            "target" : 34962
        },
        {
            "buffer" : 0,
            "byteLength" : 10080,
            "byteOffset" : 10080,
            "target" : 34962
        },
        {
            "buffer" : 0,
            "byteLength" : 6720,
            "byteOffset" : 20160,
            "target" : 34962
        },
        {
            "buffer" : 0,
            "byteLength" : 1992,
            "byteOffset" : 26880,
            "target" : 34963
        },
        {
            "buffer" : 0,
            "byteLength" : 49589,
            "byteOffset" : 28872
        },
        {
            "buffer" : 0,
            "byteLength" : 1572521,
            "byteOffset" : 78464
        },
        {
            "buffer" : 0,
            "byteLength" : 885863,
            "byteOffset" : 1650988
        },
        {
            "buffer" : 0,
            "byteLength" : 330543,
            "byteOffset" : 2536852
        }
    ],
    "samplers" : [
        {
            "magFilter" : 9729,
            "minFilter" : 9987
        }
    ],
    "buffers" : [
        {
            "byteLength" : 2867396,
            "uri" : "data:application/octet-stream;base64,"
        }
    ]
}
